
<svg width="1200"
     height="650"
     xmlns="http://www.w3.org/2000/svg">

<defs>

<linearGradient id="areaGradient"
                x1="0"
                y1="0"
                x2="0"
                y2="1">

<stop offset="0%"
      stop-color="#a855f7"
      stop-opacity="0.45"/>

<stop offset="100%"
      stop-color="#a855f7"
      stop-opacity="0"/>

</linearGradient>

<clipPath id="graphClip">

<rect
x="420"
y="120"
width="730"
height="360"
rx="12"/>

</clipPath>

</defs>

<style>

.title {
fill:white;
font-size:28px;
font-weight:bold;
font-family:Arial;
}

.card {
fill:#161b22;
stroke:#30363d;
stroke-width:1;
}

.label {
fill:#8b949e;
font-size:14px;
font-family:Arial;
}

.value {
fill:white;
font-size:26px;
font-weight:bold;
font-family:Arial;
}

</style>

<rect width="100%"
      height="100%"
      fill="#0d1117"
      rx="20"/>

<text x="30"
      y="45"
      class="title">
LeetCode Analytics
</text>

<!-- LEFT PANEL -->

<rect x="25" y="80" width="340" height="90" rx="14" class="card"/>
<text x="45" y="110" class="label">Current Rating</text>
<text x="45" y="145" class="value">1376</text>

<rect x="25" y="190" width="340" height="90" rx="14" class="card"/>
<text x="45" y="220" class="label">Peak Rating</text>
<text x="45" y="255" class="value">1483</text>

<rect x="25" y="300" width="340" height="90" rx="14" class="card"/>
<text x="45" y="330" class="label">Problems Solved</text>
<text x="45" y="365" class="value">260</text>

<rect x="25" y="410" width="340" height="90" rx="14" class="card"/>
<text x="45" y="440" class="label">Max Streak</text>
<text x="45" y="475" class="value">26 days</text>

<!-- GRAPH PANEL -->

<rect
x="390"
y="80"
width="780"
height="450"
rx="16"
class="card"/>

<text
x="420"
y="110"
fill="white"
font-size="20"
font-family="Arial">
Contest Rating History
</text>

<line
x1="420"
y1="480"
x2="1150"
y2="480"
stroke="#30363d"/>

<line
x1="420"
y1="120"
x2="420"
y2="480"
stroke="#30363d"/>

<g clip-path="url(#graphClip)">

<polygon
fill="url(#areaGradient)"
points="420.0,480 420.0,150.0 511.25,229.7202797202797 602.5,336.7132867132867 693.75,363.986013986014 785.0,450.0 876.25,420.6293706293706 967.5,397.5524475524476 1058.75,439.5104895104895 1150.0,374.4755244755245 1150.0,480"/>

<polyline
fill="none"
stroke="#a855f7"
stroke-width="4"
points="420.0,150.0 511.25,229.7202797202797 602.5,336.7132867132867 693.75,363.986013986014 785.0,450.0 876.25,420.6293706293706 967.5,397.5524475524476 1058.75,439.5104895104895 1150.0,374.4755244755245"/>


    <circle cx="420.0" cy="150.0" r="5" fill="#a855f7"/>

    <text
        x="405.0"
        y="138.0"
        fill="white"
        font-size="12"
        font-family="Arial">
        1483
    </text>
    
    <circle cx="511.25" cy="229.7202797202797" r="5" fill="#a855f7"/>

    <text
        x="496.25"
        y="217.7202797202797"
        fill="white"
        font-size="12"
        font-family="Arial">
        1445
    </text>
    
    <circle cx="602.5" cy="336.7132867132867" r="5" fill="#a855f7"/>

    <text
        x="587.5"
        y="324.7132867132867"
        fill="white"
        font-size="12"
        font-family="Arial">
        1394
    </text>
    
    <circle cx="693.75" cy="363.986013986014" r="5" fill="#a855f7"/>

    <text
        x="678.75"
        y="351.986013986014"
        fill="white"
        font-size="12"
        font-family="Arial">
        1381
    </text>
    
    <circle cx="785.0" cy="450.0" r="5" fill="#a855f7"/>

    <text
        x="770.0"
        y="438.0"
        fill="white"
        font-size="12"
        font-family="Arial">
        1340
    </text>
    
    <circle cx="876.25" cy="420.6293706293706" r="5" fill="#a855f7"/>

    <text
        x="861.25"
        y="408.6293706293706"
        fill="white"
        font-size="12"
        font-family="Arial">
        1354
    </text>
    
    <circle cx="967.5" cy="397.5524475524476" r="5" fill="#a855f7"/>

    <text
        x="952.5"
        y="385.5524475524476"
        fill="white"
        font-size="12"
        font-family="Arial">
        1365
    </text>
    
    <circle cx="1058.75" cy="439.5104895104895" r="5" fill="#a855f7"/>

    <text
        x="1043.75"
        y="427.5104895104895"
        fill="white"
        font-size="12"
        font-family="Arial">
        1345
    </text>
    
    <circle cx="1150.0" cy="374.4755244755245" r="5" fill="#a855f7"/>

    <text
        x="1135.0"
        y="362.4755244755245"
        fill="white"
        font-size="12"
        font-family="Arial">
        1376
    </text>
    

</g>

<!-- FOOTER -->

<text x="40"
      y="600"
      fill="white"
      font-size="15">
Active Days: 130
</text>

<text x="300"
      y="600"
      fill="#22c55e"
      font-size="15">
GFG Solved: 64
</text>

<text x="550"
      y="600"
      fill="#60a5fa"
      font-size="15">
Codeforces Solved: 3
</text>

<text x="850"
      y="600"
      fill="#a855f7"
      font-size="15">
Contests: 9
</text>

</svg>
