
<svg width="1000"
     height="420"
     xmlns="http://www.w3.org/2000/svg">

<defs>

<linearGradient id="areaGradient"
                x1="0"
                y1="0"
                x2="0"
                y2="1">
    <stop offset="0%" stop-color="#a855f7" stop-opacity="0.4"/>
    <stop offset="100%" stop-color="#a855f7" stop-opacity="0"/>
</linearGradient>

</defs>

<style>

.title {
    fill:white;
    font-size:24px;
    font-weight:bold;
    font-family:Arial;
}

.label {
    fill:#8b949e;
    font-size:14px;
    font-family:Arial;
}

.value {
    fill:white;
    font-size:18px;
    font-weight:bold;
    font-family:Arial;
}

</style>

<rect width="100%"
      height="100%"
      rx="18"
      fill="#0d1117"/>

<!-- TITLE -->

<text x="25"
      y="35"
      class="title">
     contest Analytics 
</text>

<!-- TOP STATS -->

<rect x="20" y="55" width="220" height="60" rx="10" fill="#161b22"/>

<text x="35" y="80" class="label">
Current Rating
</text>

<text x="35" y="103" class="value">
1376
</text>

<rect x="260" y="55" width="220" height="60" rx="10" fill="#161b22"/>

<text x="275" y="80" class="label">
Peak Rating
</text>

<text x="275" y="103" class="value">
1483
</text>

<rect x="500" y="55" width="220" height="60" rx="10" fill="#161b22"/>

<text x="515" y="80" class="label">
Problems Solved
</text>

<text x="515" y="103" class="value">
327
</text>


<rect x="740" y="55" width="220" height="60" rx="10" fill="#161b22"/>

<text x="755" y="80" class="label">
Max Streak
</text>

<text x="755" y="103" class="value">
26 days
</text>

<!-- GRAPH PANEL -->

<rect x="20"
      y="140"
      width="940"
      height="220"
      rx="12"
      fill="#161b22"/>

<text x="35"
      y="170"
      fill="white"
      font-size="18"
      font-family="Arial">
Contest Rating Trend
</text>

<!-- GRID -->

<line x1="50" y1="210" x2="930" y2="210" stroke="#21262d"/>
<line x1="50" y1="260" x2="930" y2="260" stroke="#21262d"/>
<line x1="50" y1="310" x2="930" y2="310" stroke="#21262d"/>

<line x1="50" y1="190" x2="50" y2="340" stroke="#30363d"/>
<line x1="50" y1="340" x2="930" y2="340" stroke="#30363d"/>

<polygon
fill="url(#areaGradient)"
points="450.0,480 450.0,150.0 533.75,229.7202797202797 617.5,336.7132867132867 701.25,363.986013986014 785.0,450.0 868.75,420.6293706293706 952.5,397.5524475524476 1036.25,439.5104895104895 1120.0,374.4755244755245 1120.0,480"/>

<polyline
fill="none"
stroke="#a855f7"
stroke-width="4"
points="450.0,150.0 533.75,229.7202797202797 617.5,336.7132867132867 701.25,363.986013986014 785.0,450.0 868.75,420.6293706293706 952.5,397.5524475524476 1036.25,439.5104895104895 1120.0,374.4755244755245"/>

<circle cx="450.0" cy="150.0" r="4" fill="#a855f7"/><circle cx="533.75" cy="229.7202797202797" r="4" fill="#a855f7"/><circle cx="617.5" cy="336.7132867132867" r="4" fill="#a855f7"/><circle cx="701.25" cy="363.986013986014" r="4" fill="#a855f7"/><circle cx="785.0" cy="450.0" r="4" fill="#a855f7"/><circle cx="868.75" cy="420.6293706293706" r="4" fill="#a855f7"/><circle cx="952.5" cy="397.5524475524476" r="4" fill="#a855f7"/><circle cx="1036.25" cy="439.5104895104895" r="4" fill="#a855f7"/><circle cx="1120.0" cy="374.4755244755245" r="4" fill="#a855f7"/>

<!-- FOOTER -->

<rect x="20"
      y="375"
      width="940"
      height="30"
      rx="8"
      fill="#161b22"/>

<text x="40"
      y="395"
      fill="white"
      font-size="13">
🔥 Active Days: 130
</text>

<text x="40"
      y="395"
      fill="white"
      font-size="13">
🔥 leetcode solved: 260
</text>

<text x="260"
      y="395"
      fill="#22c55e"
      font-size="13">
🟢 GFG Solved: 64
</text>

<text x="500"
      y="395"
      fill="#60a5fa"
      font-size="13">
🔵 Codeforces Solved: 3
</text>

<text x="760"
      y="395"
      fill="#a855f7"
      font-size="13">
🏆 Contests: 9
</text>

</svg>
