
<svg width="1000" height="520" xmlns="http://www.w3.org/2000/svg">

<!-- BACKGROUND -->
<rect width="100%" height="100%" rx="18" fill="#0d1117"/>

<!-- TITLE -->
<text x="25" y="40" fill="white" font-size="24" font-weight="bold">
Contest Analytics Dashboard
</text>

<!-- TOP STATS -->
<rect x="20" y="60" width="220" height="60" rx="10" fill="#161b22"/>
<text x="35" y="85" fill="#8b949e">Current Rating</text>
<text x="35" y="108" fill="white" font-size="18">1376</text>

<rect x="260" y="60" width="220" height="60" rx="10" fill="#161b22"/>
<text x="275" y="85" fill="#8b949e">Peak Rating</text>
<text x="275" y="108" fill="white" font-size="18">1483</text>

<rect x="500" y="60" width="220" height="60" rx="10" fill="#161b22"/>
<text x="515" y="85" fill="#8b949e">Total Solved</text>
<text x="515" y="108" fill="white" font-size="18">327</text>

<rect x="740" y="60" width="220" height="60" rx="10" fill="#161b22"/>
<text x="755" y="85" fill="#8b949e">Max Streak</text>
<text x="755" y="108" fill="white" font-size="18">26</text>

<!-- GRAPH PANEL -->
<rect x="20" y="120" width="960" height="240" rx="12" fill="#161b22"/>

<!-- GRAPH AREA -->
<polygon fill="rgba(168,85,247,0.2)" points="60.0,360 60.0,130.0 170.0,185.8041958041958 280.0,260.6993006993007 390.0,279.7902097902098 500.0,340.0 610.0,319.44055944055947 720.0,303.2867132867133 830.0,332.65734265734267 940.0,287.13286713286715 940.0,360"/>

<!-- LINE -->
<polyline fill="none" stroke="#a855f7" stroke-width="3" points="60.0,130.0 170.0,185.8041958041958 280.0,260.6993006993007 390.0,279.7902097902098 500.0,340.0 610.0,319.44055944055947 720.0,303.2867132867133 830.0,332.65734265734267 940.0,287.13286713286715"/>

<!-- POINTS -->
<circle cx="60.0" cy="130.0" r="4" fill="#a855f7"/><circle cx="170.0" cy="185.8041958041958" r="4" fill="#a855f7"/><circle cx="280.0" cy="260.6993006993007" r="4" fill="#a855f7"/><circle cx="390.0" cy="279.7902097902098" r="4" fill="#a855f7"/><circle cx="500.0" cy="340.0" r="4" fill="#a855f7"/><circle cx="610.0" cy="319.44055944055947" r="4" fill="#a855f7"/><circle cx="720.0" cy="303.2867132867133" r="4" fill="#a855f7"/><circle cx="830.0" cy="332.65734265734267" r="4" fill="#a855f7"/><circle cx="940.0" cy="287.13286713286715" r="4" fill="#a855f7"/>

<!-- FOOTER -->
<rect x="20" y="450" width="960" height="60" rx="10" fill="#161b22"/>

<text x="40" y="485" fill="white" font-size="13">
🔥 Active Days: 148
</text>

<text x="220" y="485" fill="#ffa116" font-size="13">
🟠 LC: 260
</text>

<text x="360" y="485" fill="#22c55e" font-size="13">
🟢 GFG: 64
</text>

<text x="520" y="485" fill="#60a5fa" font-size="13">
🔵 CF: 3
</text>

<text x="700" y="485" fill="#a855f7" font-size="13">
🏆 Contests: 9
</text>

</svg>
