
<svg width="1000" height="520" xmlns="http://www.w3.org/2000/svg">

<!-- BACKGROUND -->
<rect width="100%" height="100%" rx="18" fill="#0d1117"/>

<!-- TITLE -->
<text x="25" y="40" fill="white" font-size="24" font-weight="bold">
Contest Analytics Dashboard
</text>

<!-- TOP STATS -->
<rect x="20" y="60" width="220" height="60" rx="10" fill="#161b22"/>
<text x="35" y="85" fill="#8b949e">Current Rating</text>
<text x="35" y="108" fill="white" font-size="18">1403</text>

<rect x="260" y="60" width="220" height="60" rx="10" fill="#161b22"/>
<text x="275" y="85" fill="#8b949e">Peak Rating</text>
<text x="275" y="108" fill="white" font-size="18">1483</text>

<rect x="500" y="60" width="220" height="60" rx="10" fill="#161b22"/>
<text x="515" y="85" fill="#8b949e">Total Questions Solved</text>
<text x="515" y="108" fill="white" font-size="18">353</text>

<rect x="740" y="60" width="220" height="60" rx="10" fill="#161b22"/>
<text x="755" y="85" fill="#8b949e">Max Streak</text>
<text x="755" y="108" fill="white" font-size="18">26</text>

<!-- GRAPH PANEL -->
<rect x="20" y="120" width="960" height="240" rx="12" fill="#161b22"/>

<!-- GRAPH AREA -->
<polygon fill="rgba(168,85,247,0.2)" points="60.0,360 60.0,130.0 157.77777777777777,185.8041958041958 255.55555555555554,260.6993006993007 353.3333333333333,279.7902097902098 451.1111111111111,340.0 548.8888888888889,319.44055944055947 646.6666666666666,303.2867132867133 744.4444444444445,332.65734265734267 842.2222222222222,287.13286713286715 940.0,247.4825174825175 940.0,360"/>

<!-- LINE -->
<polyline fill="none" stroke="#a855f7" stroke-width="3" points="60.0,130.0 157.77777777777777,185.8041958041958 255.55555555555554,260.6993006993007 353.3333333333333,279.7902097902098 451.1111111111111,340.0 548.8888888888889,319.44055944055947 646.6666666666666,303.2867132867133 744.4444444444445,332.65734265734267 842.2222222222222,287.13286713286715 940.0,247.4825174825175"/>

<!-- POINTS -->
<circle cx="60.0" cy="130.0" r="4" fill="#a855f7"/><circle cx="157.77777777777777" cy="185.8041958041958" r="4" fill="#a855f7"/><circle cx="255.55555555555554" cy="260.6993006993007" r="4" fill="#a855f7"/><circle cx="353.3333333333333" cy="279.7902097902098" r="4" fill="#a855f7"/><circle cx="451.1111111111111" cy="340.0" r="4" fill="#a855f7"/><circle cx="548.8888888888889" cy="319.44055944055947" r="4" fill="#a855f7"/><circle cx="646.6666666666666" cy="303.2867132867133" r="4" fill="#a855f7"/><circle cx="744.4444444444445" cy="332.65734265734267" r="4" fill="#a855f7"/><circle cx="842.2222222222222" cy="287.13286713286715" r="4" fill="#a855f7"/><circle cx="940.0" cy="247.4825174825175" r="4" fill="#a855f7"/>

<!-- FOOTER -->
<rect x="20" y="450" width="960" height="60" rx="10" fill="#161b22"/>

<text x="40" y="485" fill="white" font-size="13">
Total Active Days: 163
</text>

<text x="220" y="485" fill="#ffa116" font-size="13">
🟠 LC: 272
</text>

<text x="360" y="485" fill="#22c55e" font-size="13">
🟢 GFG: 64
</text>

<text x="520" y="485" fill="#60a5fa" font-size="13">
🔵 CF: 17
</text>

<text x="700" y="485" fill="#a855f7" font-size="13">
🏆 Contests: 10
</text>

</svg>
